<?xml version="1.0" encoding="utf-8"?>
<!-- Generator: Adobe Illustrator 18.1.1, SVG Export Plug-In . SVG Version: 6.00 Build 0)  -->
<svg version="1.1" id="Layer_1" xmlns="http://www.w3.org/2000/svg" xmlns:xlink="http://www.w3.org/1999/xlink" x="0px" y="0px"
	 viewBox="0 0 916.4 162.3" enable-background="new 0 0 916.4 162.3" xml:space="preserve">
<g>
	<path d="M96.3,148c0-2-1.2-3.4-3.1-3.5c-2-0.1-3.6,1.4-3.6,3.3c-0.1,2,1.4,3.5,3.4,3.5C95,151.2,96.3,149.9,96.3,148z M70.3,141
		c0.1-1.9-1.2-3.4-3-3.5c-2.1-0.2-3.6,1.1-3.7,3.1c-0.1,2.1,1,3.3,3,3.6C68.5,144.4,70.1,143,70.3,141z M71.2,113.9
		c0.1-1.8-1.3-3.3-3.2-3.4c-2.1-0.1-3.5,1.2-3.5,3.3c0,2,1.2,3.4,3.1,3.5C69.5,117.3,71.2,115.8,71.2,113.9z M36,105.2
		c1.9-0.1,3.4-1.7,3.3-3.6c-0.1-1.8-1.5-3.2-3.4-3.2c-2,0-3.4,1.6-3.3,3.5C32.7,103.9,34.2,105.3,36,105.2z M67.9,87.2
		c1.9,0,3.4-1.4,3.4-3.2c0-2-1.5-3.5-3.4-3.5c-2,0-3.4,1.6-3.4,3.5C64.6,86,66,87.3,67.9,87.2z M20.6,78.8c0,1.9,1.6,3.4,3.5,3.4
		c1.9,0,3.2-1.5,3.2-3.4c0-2-1.3-3.3-3.2-3.3C22.1,75.4,20.6,76.9,20.6,78.8z M88.3,58.7c0-1.9-1.4-3.2-3.3-3.2
		c-2.1,0-3.5,1.4-3.4,3.4c0.1,2,1.3,3.2,3.3,3.3C86.9,62.2,88.4,60.6,88.3,58.7z M78.3,38c-0.1-1.9-1.8-3.5-3.5-3.4
		c-1.7,0.1-3.2,1.8-3.2,3.5c0,1.9,1.6,3.4,3.6,3.3C77.1,41.3,78.4,39.9,78.3,38z M20.9,60.6c0-1.8-1.5-3.3-3.3-3.4
		c-2-0.1-3.6,1.4-3.7,3.3c0,1.5,1.8,3.4,3.3,3.5C18.9,64.2,20.9,62.3,20.9,60.6z M118.2,119.1c0-1.8-1.7-3.7-3.4-3.6
		c-2,0.1-3.2,1.2-3.4,3.3c-0.1,2,1,3.3,3,3.4C116.5,122.3,118.2,121,118.2,119.1z M125.7,125.2c2,0,3.6-1.5,3.6-3.3
		c0-1.6-1.7-3.3-3.4-3.4c-1.9-0.1-3.4,1.5-3.4,3.5C122.4,124,123.6,125.2,125.7,125.2z M80.7,131.4c1.8,0.1,3.4-1.3,3.6-3.1
		c0.1-1.8-1.5-3.7-3.2-3.8c-1.8-0.1-3.5,1.6-3.5,3.4C77.5,129.9,78.8,131.3,80.7,131.4z M114.5,125.2c-2-0.1-3.6,1.4-3.6,3.4
		c0,1.5,1.9,3.4,3.4,3.5c1.7,0.1,3.6-1.9,3.6-3.5C117.9,126.7,116.4,125.3,114.5,125.2z M86.7,73.2c1.8,0,3.5-1.7,3.5-3.5
		c0-1.7-1.5-3.2-3.4-3.2c-2.1-0.1-3.5,1.3-3.4,3.4C83.4,71.7,84.8,73.2,86.7,73.2z M85.2,97.2c2.1-0.1,3.2-1.2,3.2-3.3
		c-0.1-1.9-1.5-3.4-3.3-3.4c-1.8,0-3.5,1.9-3.4,3.6C81.7,95.9,83.3,97.3,85.2,97.2z M56.6,44.7c-0.1,1.9,1.4,3.5,3.4,3.6
		c1.9,0.1,3.3-1.3,3.4-3.2c0.1-1.9-1.2-3.4-3-3.6C58.3,41.3,56.7,42.8,56.6,44.7z M132.3,44c0-1.9-1.5-3.5-3.4-3.5
		c-1.9,0-3.3,1.4-3.4,3.3c-0.1,1.9,1.3,3.4,3.1,3.5C130.6,47.3,132.3,45.9,132.3,44z M52.2,94.2c0.1-1.8-1.6-3.6-3.3-3.7
		c-1.7-0.1-3.3,1.5-3.4,3.3c-0.1,2.1,1.2,3.5,3.3,3.6C50.7,97.4,52.2,96,52.2,94.2z M115.3,137.7c0-2-1.3-3.3-3.3-3.3
		c-2,0-3.5,1.5-3.4,3.4c0.1,1.9,1.7,3.4,3.6,3.3C114.2,141.1,115.4,139.8,115.3,137.7z M90.1,75.5c-2-0.1-3.5,1.4-3.6,3.3
		c-0.1,1.9,1.3,3.3,3.2,3.4c2.1,0.1,3.3-1,3.6-3C93.5,77.3,92,75.6,90.1,75.5z M47.3,82.6c0-1.9-1.4-3.2-3.4-3.2
		c-2.1,0-3.4,1.4-3.3,3.4c0.1,1.9,1.5,3.3,3.4,3.3C45.8,86.1,47.3,84.5,47.3,82.6z M47.9,142.5c-2,0.1-3.5,1.6-3.3,3.6
		c0.2,2.1,1.4,3.1,3.5,3.2c1.9,0,3.3-1.5,3.2-3.6C51.3,143.7,49.8,142.4,47.9,142.5z M49.3,114c0-1.9-1.5-3.4-3.2-3.4
		c-1.7,0-3.6,1.8-3.5,3.5c0,1.9,1.7,3.4,3.6,3.3C48.1,117.3,49.4,116,49.3,114z M128.2,112.7c0-1.9-1.6-3.4-3.5-3.4
		c-1.9,0.1-3.2,1.4-3.2,3.3c0,1.9,1.4,3.4,3.1,3.5C126.4,116.2,128.2,114.4,128.2,112.7z M88.2,118.2c0-1.7-1.8-3.6-3.5-3.6
		c-1.7,0-3.3,1.6-3.4,3.4c-0.1,1.9,1.5,3.5,3.4,3.5C86.6,121.5,88.1,120,88.2,118.2z M19.9,73.4c1.9,0,3.4-1.5,3.4-3.3
		c0-1.8-1.7-3.6-3.5-3.6c-1.8,0-3.4,1.7-3.3,3.6C16.6,72.2,17.9,73.4,19.9,73.4z M52.3,55.4c0-1.4-1.1-2.6-3.1-2.8
		c-1.8-0.2-3.6,1.6-3.6,3.4c0,1.9,1.6,3.5,3.5,3.4C51,59.4,52.3,58,52.3,55.4z M105.8,70.4c-2,0-3.4,1.2-3.4,3.1
		c-0.1,1.8,1.4,3.5,3.1,3.6c1.9,0.1,3.9-1.7,3.8-3.5C109.2,72,107.5,70.5,105.8,70.4z M55.6,120.6c0,1.7,1.8,3.6,3.5,3.5
		c1.7,0,3.3-1.6,3.3-3.4c0.1-1.9-1.6-3.5-3.5-3.5C57.3,117.3,55.6,118.9,55.6,120.6z M97.3,121.7c0-1.9-1.3-3.2-3.3-3.3
		c-2.1,0-3.5,1.3-3.5,3.3c0,1.9,1.5,3.4,3.2,3.4C95.7,125.2,97.3,123.6,97.3,121.7z M93.2,26c0-1.9-1.6-3.5-3.5-3.5
		c-1.9,0-3.2,1.4-3.3,3.3c0,2.1,1.3,3.5,3.3,3.5C91.7,29.2,93.2,27.7,93.2,26z M139.2,112.6c0-1.9-1.7-3.4-3.6-3.3
		c-1.9,0.1-3.2,1.4-3.1,3.4c0,1.9,1.5,3.4,3.2,3.4C137.4,116.1,139.3,114.3,139.2,112.6z M39.3,76.9c0-2-1.2-3.4-3.1-3.5
		c-2-0.1-3.6,1.3-3.6,3.3c0,1.9,1.6,3.5,3.4,3.5C38,80.2,39.3,78.9,39.3,76.9z M95.3,49.8c0-2-1.3-3.3-3.2-3.4
		c-1.9,0-3.5,1.5-3.5,3.4c0,1.9,1.6,3.4,3.6,3.3C94.1,53.2,95.3,51.8,95.3,49.8z M52.8,69.4c1.9,0,3.4-1.4,3.5-3.1
		c0.1-1.8-1.6-3.6-3.3-3.7c-1.8-0.1-3.4,1.6-3.4,3.5C49.6,68.1,50.8,69.4,52.8,69.4z M92.1,40.4c1.9,0,3.3-1.4,3.3-3.3
		c0-2-1.6-3.6-3.4-3.5c-1.7,0.1-3.4,1.7-3.4,3.4C88.6,38.8,90.2,40.4,92.1,40.4z M102.8,115.3c1.8,0,3.4-1.6,3.4-3.2
		c0-1.7-1.8-3.5-3.5-3.5c-1.8,0-3.3,1.5-3.3,3.3C99.3,113.9,100.7,115.3,102.8,115.3z M66.4,93c0.1-1.9-1.3-3.4-3.1-3.5
		c-1.9-0.1-3.6,1.4-3.7,3.3c-0.1,1.8,1.6,3.5,3.4,3.5C64.9,96.2,66.4,94.8,66.4,93z M38.8,45.4c1.7-0.1,3.4-1.7,3.4-3.4
		c0-1.7-1.8-3.5-3.5-3.5c-1.8,0-3.4,1.8-3.3,3.6C35.4,44,37,45.5,38.8,45.4z M96.5,65.4c-2.2-0.1-3.2,1.3-3.5,3.1
		c-0.3,1.7,1.6,3.5,3.4,3.6c1.8,0,3.6-1.7,3.6-3.4C99.9,67,98.3,65.5,96.5,65.4z M88.2,104.3c0-1.8-1.7-3.6-3.4-3.7
		c-1.8,0-3.4,1.6-3.3,3.6c0,1.9,1.4,3.3,3.3,3.3C86.6,107.5,88.2,106,88.2,104.3z M47.3,69.6c0-1.8-1.5-3.3-3.4-3.3
		c-2,0-3.5,1.5-3.4,3.5c0.1,1.8,1.6,3.4,3.3,3.4C45.7,73.2,47.3,71.4,47.3,69.6z M102.5,22.7c0-1.9-1.4-3.2-3.3-3.2
		c-2,0-3.6,1.5-3.5,3.3c0,1.7,1.9,3.4,3.7,3.4C101.1,26.1,102.6,24.5,102.5,22.7z M120.3,74.3c0-1.8-1.8-3.6-3.5-3.5
		c-1.6,0.1-3.3,1.9-3.3,3.5c0,1.8,1.8,3.5,3.5,3.5C118.8,77.7,120.3,76,120.3,74.3z M115.3,99.1c1.7,0,3.4-1.5,3.6-3.2
		c0.1-1.8-1.5-3.5-3.4-3.5c-1.9,0-3.6,1.5-3.6,3.4C112,97.5,113.6,99.1,115.3,99.1z M83.3,77.7c0.1-1.9-1.2-3.2-3.3-3.2
		c-2,0-3.3,1-3.5,3.1c-0.2,2,1.3,3.6,3.2,3.7C81.4,81.2,83.2,79.4,83.3,77.7z M142.4,74.4c-1.8,0-3.4,1.4-3.5,3.2
		c-0.1,1.7,1.7,3.5,3.4,3.6c1.8,0,3.4-1.5,3.4-3.2C145.8,76.1,144.2,74.4,142.4,74.4z M78.3,90.3c0.1-2-1.3-3.5-3.3-3.5
		c-1.8,0-3.4,1.4-3.4,3.2c-0.1,1.8,1.6,3.5,3.4,3.6C76.8,93.6,78.3,92.2,78.3,90.3z M133.4,87.1c1.7,0,3.4-1.6,3.5-3.2
		c0.1-1.8-1.6-3.4-3.5-3.5c-1.9,0-3.6,1.6-3.5,3.4C130,85.5,131.7,87.1,133.4,87.1z M121.5,91.2c1.8,0,3.6-1.6,3.7-3.4
		c0.1-1.7-1.5-3.3-3.3-3.4c-2.1-0.1-3.5,1.2-3.5,3.2C118.4,89.6,119.8,91.1,121.5,91.2z M85.1,31c0-1.8-1.7-3.5-3.5-3.5
		c-1.7,0-3.3,1.6-3.3,3.4c0,1.9,1.5,3.4,3.5,3.3C83.7,34.2,85.1,32.8,85.1,31z M78.3,135.5c0.1-1.8-1.6-3.6-3.4-3.6
		c-1.6,0-3.3,1.7-3.4,3.3c-0.1,1.8,1.6,3.6,3.4,3.6C76.5,138.9,78.2,137.2,78.3,135.5z M88.2,43c0.1-1.7-1.3-3.4-3.1-3.5
		c-1.8-0.2-3.5,1.1-3.7,2.9c-0.2,1.9,1.2,3.7,3.1,3.8C86.3,46.4,88,44.8,88.2,43z M51.2,135.3c-0.1-1.6-1.8-3.3-3.5-3.3
		c-1.7,0-3.5,1.8-3.4,3.6c0.1,1.8,1.7,3.4,3.4,3.3C49.5,138.8,51.3,137,51.2,135.3z M54.3,37.1c-0.1-1.7-1.7-3.3-3.4-3.3
		c-1.9,0-3.4,1.6-3.4,3.5c0.1,1.9,1.5,3.3,3.4,3.2C52.9,40.5,54.4,39,54.3,37.1z M53.5,133.3c0,1.7,1.7,3.4,3.3,3.5
		c1.7,0.1,3.5-1.8,3.5-3.5c0-1.7-1.6-3.4-3.3-3.5C55.3,129.8,53.5,131.6,53.5,133.3z M53.3,124.3c0-1.7-1.5-3.4-3.2-3.5
		c-1.8-0.1-3.6,1.6-3.6,3.4c0,1.9,1.5,3.3,3.3,3.4C51.7,127.6,53.3,126.1,53.3,124.3z M54.5,144.4c0,1.8,1.6,3.3,3.3,3.4
		c1.8,0,3.5-1.8,3.4-3.6c-0.1-1.7-1.7-3.4-3.4-3.4C56.1,140.8,54.5,142.6,54.5,144.4z M25.3,119.1c-0.1-1.7-1.7-3.4-3.4-3.4
		c-1.8,0-3.4,1.7-3.4,3.6c0,1.9,1.7,3.4,3.6,3.3C24,122.4,25.4,120.9,25.3,119.1z M79.9,21.5c-0.1-1.9-1.7-3.4-3.7-3.3
		c-1.8,0.1-3.4,1.7-3.3,3.4c0.1,1.7,2.1,3.5,3.7,3.4C78.3,24.9,80,23.1,79.9,21.5z M145.3,63.3c0-1.8-1.4-3.4-3.2-3.5
		c-1.8-0.1-3.5,1.6-3.6,3.5c0,1.8,1.8,3.6,3.5,3.5C143.9,66.7,145.3,65.2,145.3,63.3z M81.3,111.4c0-1.7-1.6-3.4-3.2-3.5
		c-1.8-0.1-3.6,1.7-3.5,3.5c0,1.6,1.7,3.4,3.3,3.5C79.6,114.9,81.3,113.2,81.3,111.4z M121.3,100.4c-1.8,0-3.5,1.9-3.4,3.6
		c0.1,1.6,1.9,3.2,3.6,3.2c1.7,0,3.3-1.6,3.4-3.4C124.9,102,123.2,100.4,121.3,100.4z M23.5,91.3c0-1.9-1.4-3.4-3.2-3.5
		c-1.7-0.1-3.6,1.7-3.7,3.4c0,1.6,1.9,3.6,3.6,3.5C21.9,94.7,23.5,93,23.5,91.3z M79.1,149.4c1.9,0,3.3-1.5,3.3-3.3
		c0-1.9-1.7-3.6-3.4-3.5c-1.7,0.1-3.5,1.9-3.4,3.7C75.7,148,77.3,149.4,79.1,149.4z M85.2,13.5c-1.9-0.1-3.5,1.3-3.6,3
		c-0.1,1.9,1.7,3.8,3.5,3.7c1.9-0.1,3.1-1.2,3.2-3.1C88.6,15.1,87.1,13.5,85.2,13.5z M70.8,154.5c1.8,0,3.3-1.6,3.4-3.3
		c0-1.7-1.8-3.6-3.5-3.6c-1.6,0-3.3,1.7-3.3,3.4C67.3,152.9,68.9,154.5,70.8,154.5z M99,136.7c-1.8,0-3.5,1.7-3.5,3.5
		c0,1.7,1.6,3.3,3.4,3.3c1.8,0,3.3-1.4,3.4-3.2C102.4,138.5,100.8,136.7,99,136.7z M34.5,135.5c0,1.7,1.7,3.3,3.3,3.4
		c1.7,0,3.5-1.8,3.4-3.6c0-1.7-1.7-3.4-3.3-3.4C36.2,131.9,34.5,133.7,34.5,135.5z M143.3,96.8c-1.7,0-3.3,1.6-3.4,3.3
		c-0.1,1.8,1.7,3.6,3.4,3.6c1.7,0,3.2-1.5,3.3-3.4C146.6,98.4,145.2,96.8,143.3,96.8z M34.5,123c0-1.8-1.4-3.4-3.2-3.5
		c-1.7-0.1-3.6,1.7-3.7,3.4c-0.1,1.8,1.6,3.4,3.5,3.4C33.1,126.2,34.5,124.8,34.5,123z M36.5,116.4c1.9,0,3.5-1.6,3.5-3.5
		c-0.1-1.6-1.8-3.4-3.4-3.4c-1.6,0-3.6,1.9-3.5,3.6C33,114.8,34.7,116.4,36.5,116.4z M59.5,111.5c0-1.9-1.7-3.6-3.5-3.6
		c-1.6,0.1-3.4,1.9-3.4,3.4c0,1.7,1.9,3.5,3.6,3.5C58,114.8,59.5,113.3,59.5,111.5z M22.5,105.3c0-1.9-1.5-3.4-3.3-3.4
		c-1.8,0-3.5,1.8-3.4,3.6c0.1,1.8,1.6,3.4,3.3,3.4C21.1,108.9,22.6,107.2,22.5,105.3z M30.7,71.7c1.8,0,3.4-1.4,3.5-3.2
		c0.1-1.8-1.5-3.7-3.3-3.7c-1.8-0.1-3.4,1.6-3.4,3.5C27.5,70.1,28.9,71.7,30.7,71.7z M113.3,42.2c0-1.7-1.6-3.4-3.3-3.4
		c-1.8-0.1-3.5,1.7-3.5,3.5c0,1.8,1.6,3.4,3.3,3.4C111.7,45.7,113.3,44.1,113.3,42.2z M45.5,46.2c-0.1,1.9,1.4,3.7,3.2,3.7
		c1.6,0.1,3.4-1.5,3.5-3.2c0.1-1.8-1.4-3.6-3.3-3.7C47.2,42.9,45.6,44.3,45.5,46.2z M119.3,45.4c1.8,0,3.5-1.5,3.5-3.2
		c0.1-1.7-1.7-3.7-3.4-3.7c-1.7,0-3.5,1.8-3.5,3.6C115.9,43.9,117.5,45.4,119.3,45.4z M70.4,50.2c1.7,0,3.4-1.6,3.5-3.2
		c0.1-1.7-1.7-3.5-3.4-3.5c-1.8,0-3.6,1.7-3.5,3.5C67,48.6,68.7,50.2,70.4,50.2z M104.6,64.2c0,1.8,1.7,3.5,3.5,3.4
		c1.8-0.1,3.2-1.5,3.2-3.4c0-1.9-1.4-3.4-3.2-3.4C106.4,60.7,104.6,62.4,104.6,64.2z M51.6,80.9c1.7,0,3.3-1.6,3.3-3.4
		c0-1.8-1.7-3.6-3.5-3.6c-1.9,0-3.3,1.6-3.2,3.7C48.4,79.4,49.9,80.9,51.6,80.9z M129.2,77.7c0-1.8-1.5-3.3-3.3-3.4
		c-1.8-0.1-3.4,1.4-3.5,3.1c-0.1,1.9,1.5,3.7,3.2,3.8C127.4,81.2,129.2,79.4,129.2,77.7z M30.4,49.7c0-2-1.4-3.3-3.3-3.3
		c-2,0-3.5,1.5-3.5,3.4c0,1.8,1.9,3.4,3.6,3.4C29.1,53.1,30.5,51.6,30.4,49.7z M137.3,57.5c0-1.7-1.6-3.5-3.2-3.6
		c-1.7-0.1-3.6,1.6-3.6,3.4c0,1.7,1.8,3.6,3.5,3.6C135.7,60.8,137.3,59.2,137.3,57.5z M68.6,54c-1.8-0.1-3.2,1.3-3.3,3.2
		c-0.1,2,1.3,3.7,3.2,3.6c2-0.1,3.2-1.3,3.4-3.2C72.2,55.8,70.5,54.1,68.6,54z M102.3,54.4c0,1.8,1.6,3.4,3.3,3.4
		c1.7,0,3.5-2,3.5-3.6c-0.1-1.7-1.8-3.4-3.4-3.4C103.7,50.9,102.3,52.4,102.3,54.4z M124.4,57.1c1.8,0.1,3.6-1.7,3.6-3.4
		c0-1.7-1.6-3.2-3.4-3.3c-1.9-0.1-3.4,1.3-3.5,3.1C121,55.3,122.6,57.1,124.4,57.1z M107.3,31.2c-0.1,2,1.4,3.6,3.3,3.6
		c1.6,0,3.4-1.7,3.4-3.3c0.1-1.7-1.7-3.6-3.4-3.6C108.9,27.8,107.4,29.4,107.3,31.2z M37.8,54.5c1.8,0,3.4-1.6,3.4-3.3
		c0-1.7-1.9-3.6-3.5-3.5c-1.7,0-3.3,1.7-3.3,3.4C34.3,53.1,35.7,54.5,37.8,54.5z M141.6,48.3c0-2-1.5-3.6-3.4-3.5
		c-1.7,0.1-3.3,1.8-3.3,3.5c0,1.7,1.6,3.4,3.3,3.5C140,51.9,141.6,50.3,141.6,48.3z M106.3,131.5c0-1.7-1.7-3.3-3.4-3.3
		c-1.9,0-3.4,1.6-3.4,3.5c0.1,1.8,1.6,3.3,3.3,3.4C104.6,135,106.3,133.2,106.3,131.5z M76.3,122.1c0-1.8-1.8-3.5-3.5-3.5
		c-1.9,0-3.3,1.7-3.2,3.7c0.1,1.9,1.6,3.2,3.4,3.2C74.8,125.4,76.3,123.8,76.3,122.1z M139.3,122.5c0-1.9-1.4-3.3-3.3-3.3
		c-1.8,0-3.4,1.5-3.4,3.2c0,1.8,1.6,3.6,3.4,3.6C137.9,126,139.4,124.5,139.3,122.5z M75.6,51.3c-0.1,1.6,1.6,3.4,3.2,3.6
		c1.7,0.1,3.6-1.7,3.7-3.4c0-1.7-1.8-3.6-3.5-3.6C77.5,47.9,75.7,49.7,75.6,51.3z M66.6,107.2c1.9,0,3.8-1.6,3.6-3.3
		c-0.2-1.9-1.3-3.2-3.3-3.4c-1.9-0.2-3.5,1.5-3.5,3.4C63.3,105.7,64.8,107.2,66.6,107.2z M136.5,103.2c0-1.8-1.4-3.3-3.3-3.4
		c-1.7-0.1-3.6,1.7-3.6,3.4c0,1.6,1.7,3.4,3.4,3.4C134.9,106.8,136.5,105.1,136.5,103.2z M55.4,90.5c2,0,3.6-1.5,3.5-3.4
		c-0.1-1.7-1.7-3.3-3.5-3.3c-1.8,0-3.4,1.5-3.5,3.2C51.8,88.9,53.4,90.5,55.4,90.5z M57.1,98.1c-1.8-0.1-3.5,1.3-3.6,3.1
		c-0.1,1.8,1.3,3.5,3,3.7c1.8,0.2,3.7-1.4,3.8-3.2C60.4,99.9,58.9,98.3,57.1,98.1z M38.5,88.2c-2,0-3.6,1.5-3.5,3.4
		c0,1.7,1.6,3.3,3.4,3.3c1.8,0,3.6-1.7,3.6-3.5C41.8,89.6,40.4,88.2,38.5,88.2z M104.3,33.2c0-1.8-1.8-3.5-3.6-3.5
		c-1.7,0.1-3.2,1.7-3.2,3.5c0,1.8,1.5,3.3,3.4,3.2C102.7,36.5,104.3,35,104.3,33.2z M63.1,32.6c-1.7,0-3.5,1.9-3.4,3.6
		c0.1,1.7,1.8,3.2,3.5,3.2c1.9,0,3.4-1.6,3.3-3.6C66.5,34.1,64.9,32.5,63.1,32.6z M89.5,139.2c0-1.8-1.6-3.3-3.4-3.3
		c-1.7,0-3.6,1.8-3.5,3.5c0,1.6,1.8,3.3,3.4,3.4C87.9,142.7,89.5,141,89.5,139.2z M105.2,86.5c-1.8,0-3.4,1.6-3.4,3.4
		c0,1.8,1.7,3.5,3.6,3.4c1.9-0.1,3.2-1.5,3.1-3.5C108.5,87.8,107.2,86.4,105.2,86.5z M59.3,51.5c-1.8,0-3.4,1.6-3.4,3.3
		c0,1.7,1.5,3.4,3.3,3.4c1.9,0.1,3.4-1.4,3.4-3.5C62.6,52.8,61.2,51.5,59.3,51.5z M142.5,91.3c0-2.1-1.3-3.2-3.2-3.4
		c-1.7-0.2-3.5,1.7-3.5,3.5c0,1.7,1.6,3.4,3.3,3.5C141,94.9,142.6,93.3,142.5,91.3z M72.3,28.2c-0.1-1.8-1.6-3.4-3.3-3.4
		c-1.8,0-3.5,1.8-3.4,3.6c0.1,1.9,1.6,3.2,3.5,3.1C71,31.4,72.4,30.1,72.3,28.2z M117.7,60.3c-1.9-0.1-3.3,1.3-3.4,3.3
		c-0.1,1.9,1.4,3.5,3.1,3.6c1.8,0.1,3.6-1.6,3.6-3.5C121,61.9,119.5,60.4,117.7,60.3z M30.6,97.6c0-1.9-1.3-3.3-3.2-3.4
		c-2,0-3.6,1.5-3.5,3.4c0.2,1.9,1.2,3.3,3.3,3.4C29,101.2,30.6,99.5,30.6,97.6z M27.5,113.5c1.9,0,3.4-1.5,3.4-3.3
		c0-1.8-1.8-3.5-3.6-3.4c-1.7,0.1-3.4,1.7-3.4,3.4C23.9,112.1,25.5,113.5,27.5,113.5z M106.9,103.6c1.8,0,3.4-1.6,3.3-3.3
		c0-1.8-1.9-3.5-3.6-3.4c-1.7,0.1-3.1,1.7-3.1,3.6C103.6,102.3,104.9,103.6,106.9,103.6z M127,62.7c-1.8,0-3.5,1.7-3.4,3.5
		c0,1.6,1.7,3.3,3.4,3.3c1.8,0,3.3-1.4,3.4-3.2C130.4,64.4,128.8,62.7,127,62.7z M96.6,104.2c1.8,0,3.6-1.7,3.5-3.4
		c0-1.7-1.6-3.3-3.3-3.3c-1.9,0-3.5,1.5-3.5,3.4C93.4,102.7,94.8,104.2,96.6,104.2z M49,103.7c-0.1-2-1.6-3.4-3.6-3.3
		c-1.9,0.1-3.2,1.6-3.1,3.5c0.1,1.8,1.7,3.3,3.5,3.2C47.5,107.1,49,105.4,49,103.7z M72,69.2c-1.9,0.1-3.4,1.5-3.4,3.3
		c0,1.8,1.8,3.5,3.6,3.4c1.9-0.1,3.4-1.7,3.3-3.6C75.4,70.4,74,69.1,72,69.2z M124.2,135.2c1.8,0.2,3.5-1.2,3.7-3
		c0.2-1.8-1.3-3.6-3.2-3.8c-1.9-0.1-3.4,1.1-3.5,3.1C121.2,133.4,122.4,135,124.2,135.2z M61.7,24.2c1.7,0,3.4-1.7,3.3-3.4
		c0-1.8-1.7-3.4-3.6-3.4c-1.9,0-3.2,1.5-3.1,3.4C58.4,22.7,59.9,24.2,61.7,24.2z M43.6,124.6c0-2-1.3-3.2-3.3-3.2
		c-1.9,0-3.4,1.4-3.4,3.2c0,1.8,1.8,3.5,3.5,3.5C42.2,128.1,43.6,126.5,43.6,124.6z M100.5,48.2c1.8,0,3.5-1.7,3.5-3.5
		c0-1.7-1.7-3.2-3.5-3.2c-1.9,0-3.2,1.4-3.2,3.3C97.3,46.7,98.6,48.2,100.5,48.2z M41.1,35.5c2.5,0,3.6-1.2,3.8-3.2
		c0.2-1.8-1.7-3.5-3.4-3.5c-1.8,0-3.7,1.8-3.4,3.5C38.3,34.2,39.3,35.6,41.1,35.5z M107.6,149.4c1.8-0.2,2.9-1.3,3-3.3
		c0.1-1.9-1.6-3.6-3.4-3.5c-1.7,0.1-3.4,1.9-3.3,3.7C103.9,148.1,105.5,149.5,107.6,149.4z M120.7,35.2c1.9,0,3.3-1.5,3.3-3.3
		c0-1.9-1.7-3.5-3.6-3.4c-1.7,0.1-3.2,1.7-3.1,3.5C117.3,34,118.8,35.3,120.7,35.2z M151.6,86.1c0-1.8-1.4-3.4-3.1-3.5
		c-1.7-0.1-3.5,1.6-3.6,3.4c-0.1,1.9,1.5,3.4,3.5,3.4C150.2,89.4,151.6,88,151.6,86.1z M17.5,83.7c0.1-2-1.4-3.5-3.4-3.5
		c-1.7,0-3.5,1.6-3.5,3.2c0,1.6,1.8,3.5,3.5,3.6C15.9,87,17.5,85.5,17.5,83.7z M112.6,79.8c-1.8-0.1-3.3,1.3-3.3,3.3
		c-0.1,2.1,1,3.3,3.1,3.4c1.9,0.1,3.5-1.2,3.6-3C116.1,81.6,114.5,79.9,112.6,79.8z M94.3,88.2c-1.9,0-3.4,1.4-3.4,3.2
		c0,1.8,1.6,3.6,3.3,3.7c1.8,0,3.4-1.6,3.4-3.5C97.5,89.6,96.2,88.2,94.3,88.2z M95.9,81.5c0,1.8,1.7,3.6,3.4,3.6
		c1.7,0,3.3-1.6,3.3-3.4c0-2-1.3-3.5-3.3-3.5C97.4,78.3,95.9,79.7,95.9,81.5z M128.5,91.3c-1.9,0.1-3.2,1.4-3.2,3.4
		c0,1.9,1.6,3.6,3.4,3.5c1.7-0.1,3.4-1.9,3.3-3.7C131.9,92.6,130.3,91.2,128.5,91.3z M61.5,79.5c1.9,0,3.8-1.5,3.6-3.3
		c-0.2-2-1.4-3.2-3.3-3.4c-1.9-0.2-3.5,1.4-3.5,3.3C58.3,78.1,59.6,79.4,61.5,79.5z M135.2,74.5c1.9,0,3.3-1.3,3.4-3.2
		c0-2-1.5-3.6-3.4-3.5c-1.8,0.1-3.6,1.9-3.5,3.5C131.8,73.1,133.4,74.5,135.2,74.5z M93.2,107.2c-1.9,0-3.7,1.6-3.5,3.4
		c0.2,2,1.4,3.1,3.4,3.3c1.8,0.2,3.3-1.3,3.4-3.2C96.6,108.7,95.2,107.2,93.2,107.2z M62.6,62.8c-1.8,0-3.2,1.4-3.3,3.4
		c0,2.1,1.1,3.3,3.2,3.3c2,0,3.4-1.2,3.5-3.1C66.1,64.6,64.4,62.8,62.6,62.8z M42.6,61c0-1.8-1.5-3.4-3.2-3.4
		c-1.8,0-3.5,1.8-3.5,3.5c0.1,1.8,1.5,3.2,3.4,3.2C41.2,64.2,42.6,62.9,42.6,61z M115.2,55.9c1.8,0.2,3.7-1.3,3.9-3.1
		c0.2-1.6-1.4-3.4-3.2-3.5c-2-0.2-3.5,1.1-3.7,2.9C112.1,54,113.5,55.7,115.2,55.9z M109.3,109.5c-0.1,1.9,1.3,3.5,3.1,3.6
		c1.7,0.1,3.6-1.7,3.6-3.5c0-1.8-1.5-3.3-3.3-3.4C110.7,106.2,109.3,107.6,109.3,109.5z M76.4,67.2c1.8,0,3.2-1.6,3.2-3.5
		c0-1.9-1.4-3.3-3.3-3.3c-1.8,0-3.4,1.6-3.4,3.3C72.9,65.5,74.6,67.2,76.4,67.2z M75.6,96.5c-1.8,0-3.3,1.4-3.3,3.3
		c-0.1,1.9,1.3,3.4,3.1,3.4c1.8,0,3.4-1.4,3.5-3.1C79.1,98.3,77.4,96.6,75.6,96.5z M11.5,94.2c-1.9,0.1-3.2,1.4-3.2,3.4
		c0,1.8,1.6,3.5,3.2,3.4c1.7,0,3.5-1.9,3.4-3.7C14.9,95.6,13.4,94.2,11.5,94.2z M28.6,43.1c1.7,0,3.3-1.6,3.4-3.3
		c0-1.8-1.6-3.4-3.5-3.4c-1.9,0-3.2,1.5-3.2,3.4C25.3,41.7,26.8,43.2,28.6,43.1z M99.6,58.8c0-2-1.2-3.3-3.2-3.3
		c-1.8,0-3.4,1.4-3.5,3.1c-0.1,1.7,1.7,3.5,3.4,3.6C98.1,62.2,99.6,60.7,99.6,58.8z M104.4,125.2c2,0,3.2-1.3,3.2-3.3
		c-0.1-1.9-1.5-3.4-3.3-3.4c-1.7,0-3.4,1.7-3.4,3.3C100.8,123.7,102.5,125.3,104.4,125.2z M94.6,131.6c0-2-1.3-3.3-3.2-3.4
		c-1.9-0.1-3.4,1.3-3.5,3.2c-0.1,1.8,1.6,3.6,3.4,3.6C93.1,135,94.5,133.5,94.6,131.6z M65.6,132.5c1.9,0,3.4-1.4,3.4-3.3
		c0-1.9-1.6-3.6-3.5-3.5c-1.8,0-3.2,1.6-3.2,3.5C62.3,131.1,63.6,132.5,65.6,132.5z M27.6,62.9c1.9,0,3.5-1.7,3.5-3.5
		c-0.1-1.8-1.6-3.2-3.5-3.2c-1.9,0-3.3,1.4-3.3,3.3C24.3,61.4,25.8,62.9,27.6,62.9z M55.4,31.9c1.8,0,3.2-1.5,3.2-3.4
		c0-1.9-1.4-3.2-3.3-3.2c-2,0-3.4,1.3-3.4,3.2C51.9,30.3,53.5,31.9,55.4,31.9z M33.6,86.1c0-1.9-1.5-3.4-3.3-3.3
		c-1.8,0-3.5,1.8-3.4,3.6c0.1,1.9,1.5,3.2,3.5,3.1C32.3,89.4,33.6,88,33.6,86.1z"/>
	<path d="M96.3,148c0,1.9-1.4,3.2-3.3,3.2c-2,0-3.5-1.5-3.4-3.5c0.1-1.9,1.7-3.4,3.6-3.3C95.1,144.6,96.4,146,96.3,148z"/>
	<path d="M70.3,141c-0.1,2-1.8,3.4-3.7,3.1c-2-0.3-3.1-1.5-3-3.6c0.1-2,1.6-3.3,3.7-3.1C69.1,137.6,70.4,139.1,70.3,141z"/>
	<path d="M71.2,113.9c-0.1,1.9-1.7,3.4-3.6,3.3c-1.9-0.1-3.1-1.5-3.1-3.5c0-2.1,1.5-3.4,3.5-3.3C69.9,110.5,71.3,112.1,71.2,113.9z"
		/>
	<path d="M36,105.2c-1.8,0.1-3.3-1.4-3.4-3.2c-0.1-2,1.3-3.5,3.3-3.5c1.9,0,3.4,1.3,3.4,3.2C39.4,103.6,37.9,105.1,36,105.2z"/>
	<path d="M67.9,87.2c-2,0-3.3-1.3-3.4-3.2c-0.1-2,1.4-3.5,3.4-3.5c2,0,3.4,1.5,3.4,3.5C71.3,85.9,69.8,87.2,67.9,87.2z"/>
	<path d="M20.6,78.8c0-2,1.5-3.4,3.5-3.4c2,0,3.2,1.4,3.2,3.3c0,2-1.3,3.4-3.2,3.4C22.2,82.3,20.6,80.8,20.6,78.8z"/>
	<path d="M88.3,58.7c0,2-1.4,3.6-3.4,3.5c-2.1-0.1-3.2-1.3-3.3-3.3c-0.1-2,1.3-3.4,3.4-3.4C87,55.5,88.3,56.7,88.3,58.7z"/>
	<path d="M78.3,38c0.1,2-1.2,3.3-3.2,3.4c-2,0.1-3.6-1.4-3.6-3.3c0-1.7,1.6-3.4,3.2-3.5C76.5,34.4,78.3,36.1,78.3,38z"/>
	<path d="M20.9,60.6c0,1.7-2,3.6-3.6,3.5c-1.5-0.1-3.4-2-3.3-3.5c0-1.9,1.7-3.4,3.7-3.3C19.5,57.3,21,58.8,20.9,60.6z"/>
	<path d="M118.2,119.1c0,1.9-1.7,3.2-3.7,3.1c-2-0.1-3.1-1.4-3-3.4c0.1-2.1,1.4-3.1,3.4-3.3C116.5,115.5,118.2,117.4,118.2,119.1z"
		/>
	<path d="M125.7,125.2c-2.1,0-3.3-1.2-3.2-3.2c0-2,1.5-3.5,3.4-3.5c1.6,0,3.3,1.8,3.4,3.4C129.3,123.8,127.7,125.3,125.7,125.2z"/>
	<path d="M80.7,131.4c-1.9-0.1-3.2-1.5-3.2-3.4c0-1.9,1.8-3.5,3.5-3.4c1.8,0.1,3.4,2,3.2,3.8C84.2,130.1,82.5,131.5,80.7,131.4z"/>
	<path d="M114.5,125.2c1.9,0,3.4,1.5,3.4,3.3c0,1.7-1.9,3.6-3.6,3.5c-1.5-0.1-3.4-2-3.4-3.5C110.9,126.7,112.5,125.2,114.5,125.2z"
		/>
	<path d="M86.7,73.2c-1.8,0-3.2-1.5-3.3-3.4c0-2,1.4-3.4,3.4-3.4c1.9,0,3.4,1.5,3.4,3.2C90.2,71.4,88.4,73.2,86.7,73.2z"/>
	<path d="M85.2,97.2c-1.9,0-3.5-1.3-3.6-3.1c-0.1-1.7,1.7-3.6,3.4-3.6c1.8,0,3.2,1.5,3.3,3.4C88.4,96,87.3,97.2,85.2,97.2z"/>
	<path d="M56.6,44.7c0.1-1.9,1.8-3.3,3.7-3.2c1.8,0.1,3.1,1.7,3,3.6c-0.1,1.9-1.5,3.3-3.4,3.2C58,48.2,56.5,46.5,56.6,44.7z"/>
	<path d="M132.3,44c0,1.8-1.7,3.3-3.7,3.2c-1.8-0.1-3.2-1.6-3.1-3.5c0.1-1.9,1.5-3.3,3.4-3.3C130.8,40.5,132.3,42.1,132.3,44z"/>
	<path d="M52.2,94.2c-0.1,1.8-1.6,3.2-3.5,3.2c-2,0-3.3-1.5-3.3-3.6c0.1-1.8,1.6-3.3,3.4-3.3C50.6,90.6,52.3,92.5,52.2,94.2z"/>
	<path d="M115.3,137.7c0,2-1.2,3.4-3.1,3.5c-1.9,0.1-3.6-1.4-3.6-3.3c-0.1-1.9,1.4-3.4,3.4-3.4C114,134.4,115.3,135.7,115.3,137.7z"
		/>
	<path d="M90.1,75.5c1.9,0.1,3.4,1.8,3.2,3.7c-0.3,2-1.5,3.1-3.6,3c-1.9-0.1-3.3-1.5-3.2-3.4C86.6,76.9,88.2,75.4,90.1,75.5z"/>
	<path d="M47.3,82.6c0,1.9-1.5,3.5-3.4,3.6c-1.8,0-3.3-1.4-3.4-3.3c-0.1-2,1.2-3.4,3.3-3.4C45.9,79.4,47.2,80.7,47.3,82.6z"/>
	<path d="M47.9,142.5c1.9-0.1,3.3,1.2,3.4,3.1c0.1,2.1-1.3,3.6-3.2,3.6c-2-0.1-3.3-1.1-3.5-3.2C44.5,144.1,45.9,142.5,47.9,142.5z"
		/>
	<path d="M49.3,114c0,2-1.2,3.3-3.1,3.4c-1.9,0.1-3.5-1.4-3.6-3.3c0-1.7,1.8-3.5,3.5-3.5C47.9,110.6,49.3,112.1,49.3,114z"/>
	<path d="M128.2,112.7c0,1.7-1.8,3.5-3.6,3.4c-1.7,0-3.1-1.6-3.1-3.5c0-1.9,1.3-3.3,3.2-3.3C126.6,109.2,128.2,110.8,128.2,112.7z"
		/>
	<path d="M88.2,118.2c0,1.8-1.6,3.2-3.5,3.2c-1.9,0-3.5-1.6-3.4-3.5c0.1-1.8,1.7-3.4,3.4-3.4C86.4,114.6,88.2,116.5,88.2,118.2z"/>
	<path d="M19.9,73.4c-1.9,0-3.3-1.2-3.4-3.2c-0.1-1.9,1.4-3.6,3.3-3.6c1.7,0,3.5,1.8,3.5,3.6C23.2,71.9,21.8,73.4,19.9,73.4z"/>
	<path d="M52.3,55.4c0,2.6-1.3,3.9-3.2,4c-1.9,0-3.5-1.5-3.5-3.4c0-1.7,1.9-3.6,3.6-3.4C51.2,52.8,52.3,54.1,52.3,55.4z"/>
	<path d="M105.8,70.4c1.8,0,3.4,1.5,3.4,3.2c0,1.8-2,3.6-3.8,3.5c-1.7-0.1-3.2-1.8-3.1-3.6C102.4,71.7,103.8,70.4,105.8,70.4z"/>
	<path d="M55.6,120.6c0-1.7,1.6-3.3,3.4-3.3c1.9-0.1,3.5,1.6,3.5,3.5c-0.1,1.8-1.6,3.4-3.3,3.4C57.5,124.1,55.6,122.3,55.6,120.6z"
		/>
	<path d="M97.3,121.7c0,1.9-1.6,3.4-3.5,3.4c-1.8,0-3.2-1.5-3.2-3.4c0-2,1.4-3.3,3.5-3.3C96,118.5,97.3,119.8,97.3,121.7z"/>
	<path d="M93.2,26c0,1.8-1.5,3.2-3.4,3.3c-2,0-3.4-1.4-3.3-3.5c0-1.9,1.4-3.3,3.3-3.3C91.7,22.5,93.2,24.1,93.2,26z"/>
	<path d="M139.2,112.6c0,1.7-1.8,3.5-3.5,3.5c-1.7,0-3.2-1.6-3.2-3.4c0-2,1.2-3.3,3.1-3.4C137.6,109.2,139.2,110.7,139.2,112.6z"/>
	<path d="M39.3,76.9c0,2-1.3,3.3-3.3,3.3c-1.9,0-3.5-1.6-3.4-3.5c0-1.9,1.6-3.3,3.6-3.3C38.2,73.5,39.4,74.9,39.3,76.9z"/>
	<path d="M95.3,49.8c0,2-1.2,3.3-3.2,3.4c-2,0.1-3.6-1.4-3.6-3.3c0-1.9,1.6-3.5,3.5-3.4C94,46.5,95.3,47.9,95.3,49.8z"/>
	<path d="M52.8,69.4c-1.9,0-3.2-1.3-3.2-3.3c0-1.9,1.6-3.6,3.4-3.5c1.7,0.1,3.4,1.9,3.3,3.7C56.2,68,54.7,69.4,52.8,69.4z"/>
	<path d="M92.1,40.4c-1.9,0-3.5-1.6-3.5-3.5c0-1.6,1.7-3.3,3.4-3.4c1.8-0.1,3.4,1.5,3.4,3.5C95.4,39,94,40.4,92.1,40.4z"/>
	<path d="M102.8,115.3c-2,0-3.5-1.4-3.4-3.4c0-1.8,1.5-3.3,3.3-3.3c1.7,0,3.6,1.8,3.5,3.5C106.2,113.7,104.6,115.2,102.8,115.3z"/>
	<path d="M66.4,93c-0.1,1.9-1.5,3.3-3.4,3.3c-1.9,0-3.5-1.7-3.4-3.5c0.1-1.8,1.8-3.4,3.7-3.3C65.1,89.6,66.5,91.1,66.4,93z"/>
	<path d="M38.8,45.4c-1.8,0.1-3.4-1.4-3.5-3.2c-0.1-1.9,1.5-3.6,3.3-3.6c1.7,0,3.5,1.8,3.5,3.5C42.2,43.7,40.5,45.4,38.8,45.4z"/>
	<path d="M96.5,65.4c1.8,0,3.4,1.5,3.4,3.3c0,1.7-1.8,3.5-3.6,3.4c-1.8,0-3.7-1.9-3.4-3.6C93.3,66.7,94.3,65.3,96.5,65.4z"/>
	<path d="M88.2,104.3c0,1.7-1.7,3.2-3.4,3.2c-1.9,0-3.2-1.4-3.3-3.3c0-1.9,1.5-3.6,3.3-3.6C86.5,100.6,88.2,102.5,88.2,104.3z"/>
	<path d="M47.3,69.6c0,1.8-1.6,3.6-3.4,3.5c-1.7,0-3.3-1.6-3.3-3.4c-0.1-2,1.4-3.5,3.4-3.5C45.8,66.3,47.3,67.8,47.3,69.6z"/>
	<path d="M102.5,22.7c0,1.8-1.5,3.4-3.2,3.5c-1.8,0-3.6-1.6-3.7-3.4c0-1.9,1.5-3.4,3.5-3.3C101.2,19.5,102.5,20.8,102.5,22.7z"/>
	<path d="M120.3,74.3c0,1.7-1.6,3.4-3.2,3.5c-1.8,0.1-3.5-1.6-3.5-3.5c0-1.6,1.6-3.4,3.3-3.5C118.5,70.7,120.3,72.5,120.3,74.3z"/>
	<path d="M115.3,99.1c-1.7,0-3.4-1.7-3.4-3.3c0-1.8,1.6-3.4,3.6-3.4c1.9,0,3.5,1.7,3.4,3.5C118.8,97.7,117.1,99.2,115.3,99.1z"/>
	<path d="M83.3,77.7c-0.1,1.8-1.8,3.5-3.5,3.5c-1.9,0-3.4-1.7-3.2-3.7c0.2-2.1,1.4-3.1,3.5-3.1C82,74.5,83.3,75.8,83.3,77.7z"/>
	<path d="M142.4,74.4c1.8,0,3.4,1.7,3.4,3.5c0,1.7-1.7,3.3-3.4,3.2c-1.7,0-3.5-1.9-3.4-3.6C138.9,75.9,140.5,74.4,142.4,74.4z"/>
	<path d="M78.3,90.3c0,1.8-1.5,3.3-3.4,3.2c-1.8,0-3.4-1.8-3.4-3.6c0.1-1.8,1.6-3.2,3.4-3.2C77,86.8,78.4,88.3,78.3,90.3z"/>
	<path d="M133.4,87.1c-1.7,0-3.4-1.6-3.5-3.3c-0.1-1.8,1.6-3.4,3.5-3.4c1.9,0,3.6,1.7,3.5,3.5C136.8,85.6,135.1,87.2,133.4,87.1z"/>
	<path d="M121.5,91.2c-1.7,0-3.1-1.6-3.1-3.5c0-2,1.4-3.3,3.5-3.2c1.8,0.1,3.4,1.7,3.3,3.4C125.1,89.6,123.3,91.2,121.5,91.2z"/>
	<path d="M85.1,31c0,1.8-1.4,3.2-3.4,3.2c-2,0.1-3.5-1.4-3.5-3.3c0-1.7,1.6-3.3,3.3-3.4C83.4,27.5,85,29.2,85.1,31z"/>
	<path d="M78.3,135.5c-0.1,1.7-1.8,3.4-3.4,3.3c-1.8,0-3.4-1.8-3.4-3.6c0.1-1.7,1.7-3.3,3.4-3.3C76.7,131.9,78.4,133.7,78.3,135.5z"
		/>
	<path d="M88.2,43c-0.2,1.9-1.9,3.4-3.7,3.2c-1.9-0.2-3.3-1.9-3.1-3.8c0.2-1.8,1.8-3.1,3.7-2.9C86.9,39.6,88.3,41.3,88.2,43z"/>
	<path d="M51.2,135.3c0.1,1.7-1.7,3.6-3.4,3.6c-1.7,0-3.3-1.6-3.4-3.3c-0.1-1.8,1.7-3.6,3.4-3.6C49.4,132,51.2,133.6,51.2,135.3z"/>
	<path d="M54.3,37.1c0.1,1.9-1.5,3.5-3.4,3.5c-1.9,0-3.3-1.4-3.4-3.2c-0.1-1.9,1.5-3.5,3.4-3.5C52.6,33.8,54.3,35.4,54.3,37.1z"/>
	<path d="M53.5,133.3c0-1.8,1.8-3.6,3.5-3.5c1.7,0.1,3.3,1.7,3.3,3.5c0,1.8-1.8,3.6-3.5,3.5C55.2,136.8,53.6,135,53.5,133.3z"/>
	<path d="M53.3,124.3c-0.1,1.8-1.6,3.3-3.4,3.2c-1.9,0-3.3-1.5-3.3-3.4c0-1.8,1.7-3.5,3.6-3.4C51.8,120.9,53.4,122.6,53.3,124.3z"/>
	<path d="M54.5,144.4c0-1.9,1.6-3.6,3.4-3.6c1.7,0,3.3,1.7,3.4,3.4c0.1,1.8-1.6,3.6-3.4,3.6C56.1,147.8,54.6,146.2,54.5,144.4z"/>
	<path d="M25.3,119.1c0.1,1.8-1.3,3.3-3.2,3.5c-1.9,0.1-3.6-1.4-3.6-3.3c0-1.8,1.6-3.6,3.4-3.6C23.6,115.7,25.3,117.4,25.3,119.1z"
		/>
	<path d="M79.9,21.5c0.1,1.6-1.7,3.4-3.3,3.5c-1.6,0.1-3.6-1.7-3.7-3.4c-0.1-1.7,1.5-3.3,3.3-3.4C78.3,18.1,79.9,19.6,79.9,21.5z"/>
	<path d="M145.3,63.3c0,1.8-1.4,3.4-3.2,3.4c-1.7,0.1-3.5-1.7-3.5-3.5c0-1.8,1.8-3.5,3.6-3.5C143.9,59.9,145.3,61.5,145.3,63.3z"/>
	<path d="M81.3,111.4c0,1.8-1.8,3.6-3.5,3.5c-1.6-0.1-3.3-1.9-3.3-3.5c0-1.8,1.8-3.5,3.5-3.5C79.8,108,81.3,109.7,81.3,111.4z"/>
	<path d="M121.3,100.4c1.9,0,3.6,1.6,3.5,3.4c0,1.7-1.6,3.3-3.4,3.4c-1.6,0-3.5-1.6-3.6-3.2C117.8,102.3,119.5,100.5,121.3,100.4z"
		/>
	<path d="M23.5,91.3c0,1.7-1.6,3.4-3.3,3.5c-1.7,0-3.6-1.9-3.6-3.5c0-1.7,1.9-3.5,3.7-3.4C22.1,87.9,23.5,89.4,23.5,91.3z"/>
	<path d="M79.1,149.4c-1.8,0-3.4-1.4-3.5-3.2c-0.1-1.7,1.6-3.6,3.4-3.7c1.8-0.1,3.4,1.6,3.4,3.5C82.5,147.9,81,149.4,79.1,149.4z"/>
	<path d="M85.2,13.5c1.9,0.1,3.4,1.6,3.2,3.6c-0.2,1.9-1.3,3-3.2,3.1c-1.9,0.1-3.7-1.8-3.5-3.7C81.7,14.7,83.3,13.4,85.2,13.5z"/>
	<path d="M70.8,154.5c-1.9,0-3.5-1.6-3.4-3.5c0-1.7,1.7-3.4,3.3-3.4c1.7,0,3.5,1.9,3.5,3.6C74.2,152.9,72.6,154.4,70.8,154.5z"/>
	<path d="M99,136.7c1.8,0,3.4,1.7,3.3,3.6c0,1.8-1.6,3.2-3.4,3.2c-1.8,0-3.3-1.6-3.4-3.3C95.5,138.4,97.2,136.7,99,136.7z"/>
	<path d="M34.5,135.5c0-1.8,1.7-3.6,3.4-3.5c1.7,0,3.3,1.7,3.3,3.4c0,1.8-1.7,3.6-3.4,3.6C36.2,138.8,34.6,137.2,34.5,135.5z"/>
	<path d="M143.3,96.8c1.9,0,3.3,1.6,3.3,3.6c0,1.9-1.5,3.4-3.3,3.4c-1.7,0-3.4-1.9-3.4-3.6C139.9,98.4,141.5,96.8,143.3,96.8z"/>
	<path d="M34.5,123c0,1.9-1.4,3.3-3.3,3.3c-1.9,0-3.6-1.6-3.5-3.4c0.1-1.7,2-3.4,3.7-3.4C33.1,119.5,34.5,121.1,34.5,123z"/>
	<path d="M36.5,116.4c-1.7,0-3.4-1.7-3.4-3.3c0-1.7,1.9-3.6,3.5-3.6c1.6,0,3.3,1.8,3.4,3.4C40,114.9,38.4,116.5,36.5,116.4z"/>
	<path d="M59.5,111.5c0,1.8-1.5,3.3-3.3,3.4c-1.7,0-3.6-1.8-3.6-3.5c0-1.5,1.8-3.4,3.4-3.4C57.8,107.9,59.5,109.6,59.5,111.5z"/>
	<path d="M22.5,105.3c0,2-1.5,3.6-3.3,3.6c-1.7,0-3.3-1.6-3.3-3.4c-0.1-1.8,1.6-3.6,3.4-3.6C21.1,101.9,22.5,103.4,22.5,105.3z"/>
	<path d="M30.7,71.7c-1.8,0-3.2-1.6-3.2-3.4c0-1.9,1.6-3.5,3.4-3.5c1.7,0.1,3.4,1.9,3.3,3.7C34.1,70.3,32.6,71.7,30.7,71.7z"/>
	<path d="M113.3,42.2c0,1.8-1.6,3.5-3.5,3.5c-1.7,0-3.2-1.6-3.3-3.4c0-1.8,1.7-3.5,3.5-3.5C111.7,38.9,113.3,40.5,113.3,42.2z"/>
	<path d="M45.5,46.2c0.1-1.8,1.7-3.3,3.4-3.2c1.9,0.1,3.4,1.8,3.3,3.7c-0.1,1.7-1.9,3.3-3.5,3.2C46.9,49.8,45.4,48.1,45.5,46.2z"/>
	<path d="M119.3,45.4c-1.8,0-3.3-1.5-3.4-3.3c0-1.7,1.8-3.6,3.5-3.6c1.6,0,3.5,2,3.4,3.7C122.7,43.9,121,45.5,119.3,45.4z"/>
	<path d="M70.4,50.2c-1.7,0-3.4-1.7-3.4-3.3c-0.1-1.8,1.7-3.5,3.5-3.5c1.8,0,3.5,1.8,3.4,3.5C73.8,48.6,72.1,50.2,70.4,50.2z"/>
	<path d="M104.6,64.2c0-1.8,1.8-3.4,3.6-3.4c1.7,0,3.1,1.6,3.2,3.4c0,1.9-1.4,3.3-3.2,3.4C106.3,67.6,104.6,66,104.6,64.2z"/>
	<path d="M51.6,80.9c-1.8,0-3.3-1.4-3.3-3.3c-0.1-2.1,1.3-3.6,3.2-3.7c1.7,0,3.5,1.8,3.5,3.6C55,79.2,53.4,80.8,51.6,80.9z"/>
	<path d="M129.2,77.7c0,1.8-1.9,3.5-3.6,3.5c-1.7,0-3.3-1.9-3.2-3.8c0.1-1.8,1.7-3.2,3.5-3.1C127.7,74.3,129.2,75.9,129.2,77.7z"/>
	<path d="M30.4,49.7c0,1.9-1.3,3.4-3.2,3.5c-1.8,0.1-3.6-1.6-3.6-3.4c0-1.9,1.5-3.4,3.5-3.4C29.1,46.5,30.4,47.8,30.4,49.7z"/>
	<path d="M137.3,57.5c0,1.7-1.6,3.4-3.3,3.4c-1.7,0-3.5-1.8-3.5-3.6c0-1.8,1.9-3.5,3.6-3.4C135.8,54,137.3,55.8,137.3,57.5z"/>
	<path d="M68.6,54c1.9,0.1,3.5,1.8,3.3,3.6c-0.2,2-1.4,3.1-3.4,3.2c-1.9,0.1-3.3-1.6-3.2-3.6C65.4,55.3,66.8,53.9,68.6,54z"/>
	<path d="M102.3,54.4c-0.1-2,1.4-3.6,3.3-3.6c1.6,0,3.3,1.7,3.4,3.4c0.1,1.7-1.7,3.6-3.5,3.6C103.9,57.9,102.4,56.3,102.3,54.4z"/>
	<path d="M124.4,57.1c-1.8-0.1-3.4-1.8-3.3-3.6c0.1-1.8,1.7-3.1,3.5-3.1c1.8,0.1,3.4,1.6,3.4,3.3C128,55.5,126.2,57.2,124.4,57.1z"
		/>
	<path d="M107.3,31.2c0.1-1.8,1.6-3.4,3.3-3.4c1.7,0.1,3.5,2,3.4,3.6c-0.1,1.6-1.9,3.3-3.4,3.3C108.7,34.8,107.3,33.2,107.3,31.2z"
		/>
	<path d="M37.8,54.5c-2,0-3.5-1.4-3.4-3.4c0-1.7,1.7-3.4,3.3-3.4c1.6,0,3.6,1.9,3.5,3.5C41.2,52.9,39.6,54.4,37.8,54.5z"/>
	<path d="M141.6,48.3c0,2-1.5,3.6-3.4,3.5c-1.7-0.1-3.3-1.8-3.3-3.5c0-1.7,1.6-3.4,3.3-3.5C140,44.8,141.6,46.3,141.6,48.3z"/>
	<path d="M106.3,131.5c0,1.8-1.7,3.5-3.5,3.5c-1.7,0-3.2-1.5-3.3-3.4c-0.1-1.9,1.5-3.5,3.4-3.5C104.6,128.1,106.3,129.8,106.3,131.5
		z"/>
	<path d="M76.3,122.1c0,1.7-1.5,3.3-3.3,3.4c-1.9,0.1-3.3-1.3-3.4-3.2c-0.1-2,1.3-3.6,3.2-3.7C74.5,118.6,76.2,120.3,76.3,122.1z"/>
	<path d="M139.3,122.5c0,2-1.4,3.5-3.3,3.5c-1.8,0-3.4-1.8-3.4-3.6c0-1.7,1.6-3.2,3.4-3.2C137.9,119.2,139.3,120.6,139.3,122.5z"/>
	<path d="M75.6,51.3c0.1-1.6,1.9-3.4,3.4-3.4c1.7,0,3.5,1.9,3.5,3.6c0,1.7-2,3.5-3.7,3.4C77.2,54.7,75.6,52.9,75.6,51.3z"/>
	<path d="M66.6,107.2c-1.8,0-3.2-1.5-3.2-3.4c0-1.9,1.6-3.6,3.5-3.4c2,0.2,3.1,1.5,3.3,3.4C70.3,105.6,68.4,107.3,66.6,107.2z"/>
	<path d="M136.5,103.2c0,1.9-1.7,3.5-3.5,3.5c-1.6-0.1-3.3-1.8-3.4-3.4c0-1.7,1.9-3.5,3.6-3.4C135.1,99.9,136.5,101.4,136.5,103.2z"
		/>
	<path d="M55.4,90.5c-2,0-3.5-1.6-3.5-3.5c0.1-1.7,1.7-3.2,3.5-3.2c1.8,0,3.4,1.5,3.5,3.3C59,88.9,57.4,90.5,55.4,90.5z"/>
	<path d="M57.1,98.1c1.8,0.1,3.3,1.7,3.2,3.5c-0.1,1.8-1.9,3.4-3.8,3.2c-1.8-0.2-3.1-1.8-3-3.7C53.6,99.4,55.2,98,57.1,98.1z"/>
	<path d="M38.5,88.2c1.9,0,3.4,1.4,3.4,3.2c0,1.7-1.7,3.5-3.6,3.5c-1.8,0-3.4-1.6-3.4-3.3C34.9,89.7,36.4,88.2,38.5,88.2z"/>
	<path d="M104.3,33.2c0,1.8-1.5,3.3-3.4,3.3c-1.9,0-3.4-1.4-3.4-3.2c0-1.8,1.4-3.4,3.2-3.5C102.5,29.7,104.3,31.4,104.3,33.2z"/>
	<path d="M63.1,32.6c1.7,0,3.3,1.5,3.4,3.3c0.1,1.9-1.4,3.5-3.3,3.6c-1.7,0-3.4-1.5-3.5-3.2C59.6,34.5,61.4,32.6,63.1,32.6z"/>
	<path d="M89.5,139.2c0,1.9-1.6,3.6-3.4,3.5c-1.6,0-3.4-1.8-3.4-3.4c0-1.7,1.8-3.5,3.5-3.5C87.9,135.8,89.5,137.4,89.5,139.2z"/>
	<path d="M105.2,86.5c1.9,0,3.3,1.3,3.3,3.3c0.1,2-1.3,3.4-3.1,3.5c-1.9,0.1-3.6-1.6-3.6-3.4C101.9,88.1,103.5,86.5,105.2,86.5z"/>
	<path d="M59.3,51.5c1.9,0,3.3,1.4,3.3,3.3c0,2-1.5,3.5-3.4,3.5c-1.7-0.1-3.3-1.7-3.3-3.4C55.9,53,57.5,51.5,59.3,51.5z"/>
	<path d="M142.5,91.3c0,2-1.5,3.6-3.4,3.5c-1.7-0.1-3.3-1.8-3.3-3.5c0-1.8,1.7-3.7,3.5-3.5C141.3,88.1,142.5,89.2,142.5,91.3z"/>
	<path d="M72.3,28.2c0.1,1.9-1.3,3.3-3.3,3.3c-1.9,0.1-3.4-1.2-3.5-3.1c-0.1-1.8,1.6-3.6,3.4-3.6C70.7,24.8,72.3,26.3,72.3,28.2z"/>
	<path d="M117.7,60.3c1.9,0.1,3.3,1.6,3.3,3.4c0,1.8-1.8,3.5-3.6,3.5c-1.8-0.1-3.2-1.7-3.1-3.6C114.4,61.6,115.8,60.3,117.7,60.3z"
		/>
	<path d="M30.6,97.6c0,1.9-1.6,3.6-3.4,3.5c-2-0.2-3.1-1.5-3.3-3.4c-0.2-1.9,1.5-3.4,3.5-3.4C29.3,94.3,30.6,95.7,30.6,97.6z"/>
	<path d="M27.5,113.5c-2,0-3.6-1.4-3.6-3.3c0-1.6,1.7-3.3,3.4-3.4c1.8-0.1,3.6,1.6,3.6,3.4C30.9,112,29.4,113.4,27.5,113.5z"/>
	<path d="M106.9,103.6c-2,0-3.3-1.3-3.4-3.2c0-1.8,1.4-3.5,3.1-3.6c1.7-0.1,3.6,1.6,3.6,3.4C110.3,102,108.8,103.5,106.9,103.6z"/>
	<path d="M127,62.7c1.8,0,3.3,1.7,3.3,3.6c0,1.8-1.5,3.2-3.4,3.2c-1.7,0-3.4-1.7-3.4-3.3C123.6,64.4,125.2,62.7,127,62.7z"/>
	<path d="M96.6,104.2c-1.8,0-3.3-1.6-3.3-3.4c0-1.9,1.5-3.4,3.5-3.4c1.7,0,3.3,1.6,3.3,3.3C100.2,102.5,98.4,104.3,96.6,104.2z"/>
	<path d="M49,103.7c0.1,1.7-1.5,3.4-3.2,3.4c-1.8,0.1-3.3-1.4-3.5-3.2c-0.1-1.9,1.2-3.4,3.1-3.5C47.4,100.3,48.9,101.7,49,103.7z"/>
	<path d="M72,69.2c1.9-0.1,3.4,1.2,3.5,3.1c0.1,1.9-1.4,3.5-3.3,3.6c-1.8,0.1-3.5-1.7-3.6-3.4C68.6,70.7,70.1,69.3,72,69.2z"/>
	<path d="M124.2,135.2c-1.8-0.2-3.1-1.8-3-3.7c0.1-1.9,1.6-3.2,3.5-3.1c1.9,0.1,3.4,1.9,3.2,3.8C127.7,134,126,135.4,124.2,135.2z"
		/>
	<path d="M61.7,24.2c-1.8,0-3.3-1.5-3.4-3.3c-0.1-1.9,1.3-3.4,3.1-3.4c1.9,0,3.6,1.5,3.6,3.4C65.1,22.5,63.4,24.1,61.7,24.2z"/>
	<path d="M43.6,124.6c0,1.8-1.4,3.5-3.2,3.5c-1.8,0.1-3.5-1.7-3.5-3.5c0-1.8,1.4-3.2,3.4-3.2C42.3,121.4,43.5,122.6,43.6,124.6z"/>
	<path d="M100.5,48.2c-1.8,0-3.2-1.5-3.2-3.4c0-1.9,1.4-3.3,3.2-3.3c1.8,0,3.4,1.5,3.5,3.2C104,46.5,102.3,48.2,100.5,48.2z"/>
	<path d="M41.1,35.5c-1.8,0.1-2.8-1.3-3.1-3.2c-0.3-1.7,1.6-3.5,3.4-3.5c1.8,0,3.6,1.8,3.4,3.5C44.7,34.3,43.6,35.5,41.1,35.5z"/>
	<path d="M107.6,149.4c-2.1,0-3.7-1.4-3.7-3.1c0-1.8,1.6-3.6,3.3-3.7c1.8-0.1,3.4,1.6,3.4,3.5C110.5,148.2,109.4,149.3,107.6,149.4z
		"/>
	<path d="M120.7,35.2c-1.9,0-3.3-1.3-3.4-3.2c-0.1-1.8,1.4-3.5,3.1-3.5c1.8-0.1,3.6,1.5,3.6,3.4C124,33.8,122.6,35.2,120.7,35.2z"/>
	<path d="M151.6,86.1c0,1.9-1.3,3.3-3.2,3.3c-2,0-3.5-1.5-3.5-3.4c0.1-1.8,1.8-3.5,3.6-3.4C150.2,82.7,151.6,84.3,151.6,86.1z"/>
	<path d="M17.5,83.7c0,1.8-1.6,3.4-3.3,3.3c-1.7,0-3.6-1.9-3.5-3.6c0-1.6,1.8-3.2,3.5-3.2C16.2,80.2,17.6,81.7,17.5,83.7z"/>
	<path d="M112.6,79.8c1.8,0.1,3.5,1.8,3.3,3.6c-0.1,1.8-1.7,3.1-3.6,3c-2-0.1-3.1-1.3-3.1-3.4C109.4,81.1,110.8,79.7,112.6,79.8z"/>
	<path d="M94.3,88.2c1.9,0,3.2,1.4,3.3,3.3c0,1.9-1.5,3.6-3.4,3.5c-1.7,0-3.4-1.9-3.3-3.7C90.9,89.7,92.4,88.3,94.3,88.2z"/>
	<path d="M95.9,81.5c0-1.8,1.5-3.2,3.4-3.2c2,0,3.4,1.4,3.3,3.5c0,1.7-1.6,3.4-3.3,3.4C97.6,85.1,95.9,83.2,95.9,81.5z"/>
	<path d="M128.5,91.3c1.8-0.1,3.4,1.3,3.5,3.1c0.1,1.8-1.5,3.6-3.3,3.7c-1.8,0.1-3.4-1.6-3.4-3.5C125.3,92.7,126.6,91.3,128.5,91.3z
		"/>
	<path d="M61.5,79.5c-1.9,0-3.2-1.4-3.2-3.3c0-1.9,1.6-3.5,3.5-3.3c2,0.2,3.2,1.4,3.3,3.4C65.3,78,63.5,79.5,61.5,79.5z"/>
	<path d="M135.2,74.5c-1.8,0-3.4-1.4-3.5-3.2c-0.1-1.7,1.7-3.5,3.5-3.5c1.9-0.1,3.4,1.5,3.4,3.5C138.5,73.2,137.1,74.5,135.2,74.5z"
		/>
	<path d="M93.2,107.2c2,0,3.4,1.5,3.3,3.5c-0.1,1.8-1.7,3.3-3.4,3.2c-2-0.2-3.2-1.4-3.4-3.3C89.5,108.8,91.3,107.2,93.2,107.2z"/>
	<path d="M62.6,62.8c1.8,0,3.5,1.8,3.4,3.6c-0.1,1.9-1.5,3.1-3.5,3.1c-2,0-3.2-1.3-3.2-3.3C59.3,64.3,60.8,62.8,62.6,62.8z"/>
	<path d="M42.6,61c0,1.9-1.4,3.2-3.3,3.3c-1.9,0-3.3-1.3-3.4-3.2c0-1.8,1.7-3.5,3.5-3.5C41.1,57.6,42.6,59.2,42.6,61z"/>
	<path d="M115.2,55.9c-1.8-0.2-3.1-1.9-2.9-3.7c0.2-1.9,1.7-3.1,3.7-2.9c1.8,0.1,3.3,1.9,3.2,3.5C119,54.5,117,56.1,115.2,55.9z"/>
	<path d="M109.3,109.5c0.1-2,1.4-3.3,3.3-3.3c1.8,0,3.3,1.6,3.3,3.4c0,1.7-1.9,3.6-3.6,3.5C110.6,113,109.2,111.4,109.3,109.5z"/>
	<path d="M76.4,67.2c-1.8,0-3.5-1.6-3.5-3.4c0-1.7,1.6-3.2,3.4-3.3c1.9,0,3.3,1.3,3.3,3.3C79.6,65.6,78.2,67.1,76.4,67.2z"/>
	<path d="M75.6,96.5c1.8,0,3.5,1.8,3.4,3.6c-0.1,1.7-1.7,3.2-3.5,3.1c-1.9,0-3.2-1.5-3.1-3.4C72.3,97.9,73.8,96.5,75.6,96.5z"/>
	<path d="M11.5,94.2c1.9,0,3.4,1.4,3.5,3.2c0,1.8-1.7,3.6-3.4,3.7c-1.7,0-3.2-1.6-3.2-3.4C8.3,95.6,9.6,94.3,11.5,94.2z"/>
	<path d="M28.6,43.1c-1.8,0-3.3-1.4-3.3-3.3c0-1.9,1.3-3.4,3.2-3.4c1.9,0,3.6,1.6,3.5,3.4C31.9,41.6,30.3,43.1,28.6,43.1z"/>
	<path d="M99.6,58.8c0,1.9-1.4,3.4-3.3,3.4c-1.8,0-3.5-1.8-3.4-3.6c0.1-1.7,1.7-3.2,3.5-3.1C98.4,55.5,99.6,56.8,99.6,58.8z"/>
	<path d="M104.4,125.2c-1.9,0-3.6-1.6-3.5-3.4c0.1-1.7,1.8-3.3,3.4-3.3c1.8,0,3.2,1.5,3.3,3.4C107.6,123.9,106.4,125.2,104.4,125.2z
		"/>
	<path d="M94.6,131.6c0,1.9-1.5,3.4-3.3,3.4c-1.8,0-3.5-1.7-3.4-3.6c0.1-1.8,1.6-3.2,3.5-3.2C93.3,128.3,94.6,129.7,94.6,131.6z"/>
	<path d="M65.6,132.5c-1.9,0-3.3-1.4-3.3-3.3c0-1.9,1.4-3.4,3.2-3.5c1.8,0,3.5,1.7,3.5,3.5C68.9,131.1,67.5,132.5,65.6,132.5z"/>
	<path d="M27.6,62.9c-1.8,0-3.3-1.5-3.3-3.3c0-1.9,1.3-3.3,3.3-3.3c1.9,0,3.4,1.4,3.5,3.2C31.2,61.2,29.5,62.9,27.6,62.9z"/>
	<path d="M55.4,31.9c-1.9,0-3.5-1.6-3.5-3.5c0-1.9,1.4-3.2,3.4-3.2c2,0,3.3,1.3,3.3,3.2C58.6,30.4,57.2,31.9,55.4,31.9z"/>
	<path d="M33.6,86.1c0,1.9-1.3,3.3-3.2,3.4c-2,0.1-3.4-1.2-3.5-3.1c-0.1-1.8,1.5-3.5,3.4-3.6C32,82.8,33.5,84.2,33.6,86.1z"/>
</g>
<g>
	<path fill="#FFFFFF" d="M178.5,124.7V38.7c0-3.6,1.8-5.5,5.5-5.5h45.6c2.7,0,4.1,2.3,4.1,6.8v4.2c0,4.6-1.4,6.8-4.1,6.8h-30.1v20
		h29.1c2.7,0,4.1,2.3,4.1,6.8v4.2c0,4.6-1.4,6.8-4.1,6.8h-29.1v35.8c0,2.9-2.7,4.4-8.2,4.4h-4.6
		C181.2,129.1,178.5,127.7,178.5,124.7z"/>
	<path fill="#FFFFFF" d="M237.8,126.1c0-0.4,0.2-1.2,0.5-2.5l30.1-87.9c0.7-1.9,3.3-2.9,7.8-2.9h7.1c4.5,0,7.1,1,7.8,2.9l30.1,87.9
		c0.3,0.9,0.4,1.7,0.4,2.5c0,2-2.3,3-6.8,3h-6c-4.5,0-7-1-7.7-2.9l-5.5-16.7h-32.2l-5.5,16.7c-0.6,1.9-2.7,2.9-6.3,2.9h-5.5
		C240.6,129.1,237.8,128.1,237.8,126.1z M269.2,91.5h20.5L282,67.2l-2-8.7h-0.5c-0.8,4.3-1.5,7.2-2,8.7L269.2,91.5z"/>
	<path fill="#FFFFFF" d="M330.2,124.7V37.3c0-3,2.7-4.5,8.2-4.5h4.8c5.5,0,8.2,1.5,8.2,4.5v87.5c0,3-2.7,4.5-8.2,4.5h-4.8
		C332.9,129.3,330.2,127.7,330.2,124.7z"/>
	<path fill="#FFFFFF" d="M369.5,124.7V38.7c0-3.6,1.8-5.5,5.5-5.5h26.6c22.7,0,34,8.6,34,25.7c0,5.1-1.4,9.5-4.3,13.3
		c-2.9,3.8-6.8,6.6-11.7,8.4v0.5c1.7,0.6,3.5,2.2,5.3,4.6c1.8,2.4,3.3,5.1,4.5,8l12,30.1c0.5,1.2,0.7,2,0.7,2.6
		c0,1.8-2.7,2.7-8.2,2.7h-5.6c-4.6,0-7.2-1-7.9-2.9l-10.8-26.6c-1.5-3-3.2-5.1-5-6.4c-1.8-1.2-4.7-1.8-8.8-1.8h-5.3v33.3
		c0,2.9-2.7,4.4-8.2,4.4h-4.6C372.3,129.1,369.5,127.7,369.5,124.7z M390.6,73.2h13c2.8,0,5.3-1.1,7.4-3.4c2.1-2.3,3.1-5,3.1-8.3
		c0-3.2-1-5.8-3.1-7.7c-2-1.9-4.9-2.8-8.4-2.8h-12V73.2z"/>
	<path fill="#FFFFFF" d="M503.2,124.7V51.1h-21.7c-2.7,0-4.1-2.3-4.1-6.8V40c0-4.6,1.4-6.8,4.1-6.8h64.6c2.7,0,4.1,2.3,4.1,6.8v4.2
		c0,4.6-1.4,6.8-4.1,6.8h-21.7v73.7c0,2.9-2.7,4.4-8.2,4.4h-4.8C505.9,129.1,503.2,127.7,503.2,124.7z"/>
	<path fill="#FFFFFF" d="M560.7,124.7V38.7c0-3.6,1.8-5.5,5.5-5.5h26.6c22.7,0,34,8.6,34,25.7c0,5.1-1.4,9.5-4.3,13.3
		c-2.9,3.8-6.8,6.6-11.7,8.4v0.5c1.7,0.6,3.5,2.2,5.3,4.6c1.8,2.4,3.3,5.1,4.5,8l12,30.1c0.5,1.2,0.7,2,0.7,2.6
		c0,1.8-2.7,2.7-8.2,2.7h-5.6c-4.6,0-7.2-1-7.9-2.9l-10.8-26.6c-1.5-3-3.2-5.1-5-6.4c-1.8-1.2-4.7-1.8-8.8-1.8h-5.3v33.3
		c0,2.9-2.7,4.4-8.2,4.4h-4.6C563.5,129.1,560.7,127.7,560.7,124.7z M581.8,73.2h13c2.8,0,5.3-1.1,7.4-3.4c2.1-2.3,3.1-5,3.1-8.3
		c0-3.2-1-5.8-3.1-7.7c-2-1.9-4.9-2.8-8.4-2.8h-12V73.2z"/>
	<path fill="#FFFFFF" d="M644.1,123.4V38.7c0-3.6,1.8-5.5,5.5-5.5h50c2.7,0,4.1,2.3,4.1,6.8v4.2c0,4.6-1.4,6.8-4.1,6.8h-34.4v19.8
		h30.7c2.7,0,4.1,2.3,4.1,6.8V82c0,4.6-1.4,6.8-4.1,6.8h-30.7v22.1h34.6c2.7,0,4.1,2.3,4.1,6.8v4.2c0,4.6-1.4,6.8-4.1,6.8h-50.2
		C645.9,128.8,644.1,127,644.1,123.4z"/>
	<path fill="#FFFFFF" d="M709.3,126.1c0-0.4,0.2-1.2,0.5-2.5l30.1-87.9c0.7-1.9,3.3-2.9,7.8-2.9h7.1c4.5,0,7.1,1,7.8,2.9l30.1,87.9
		c0.3,0.9,0.4,1.7,0.4,2.5c0,2-2.3,3-6.8,3h-6c-4.5,0-7-1-7.7-2.9l-5.5-16.7h-32.2l-5.5,16.7c-0.6,1.9-2.7,2.9-6.3,2.9h-5.5
		C712,129.1,709.3,128.1,709.3,126.1z M740.7,91.5h20.5l-7.8-24.3l-2-8.7h-0.5c-0.8,4.3-1.5,7.2-2,8.7L740.7,91.5z"/>
	<path fill="#FFFFFF" d="M802.5,123.4V38.7c0-3.6,1.8-5.5,5.5-5.5h30.6c14.1,0,24.9,4.1,32.5,12.4c7.5,8.2,11.3,20.1,11.3,35.5
		c0,15.4-3.8,27.2-11.3,35.5c-7.5,8.2-18.3,12.4-32.5,12.4h-30.6C804.3,128.8,802.5,127,802.5,123.4z M823.6,110.9h14.9
		c7.3,0,12.8-2.5,16.5-7.7c3.7-5.1,5.6-12.5,5.6-22.3c0-9.7-1.9-17.2-5.6-22.3c-3.7-5.1-9.2-7.7-16.5-7.7h-14.9V110.9z"/>
</g>
<g>
</g>
<g>
</g>
<g>
</g>
<g>
</g>
<g>
</g>
<g>
</g>
<g>
</g>
<g>
</g>
<g>
</g>
<g>
</g>
<g>
</g>
<g>
</g>
<g>
</g>
<g>
</g>
<g>
</g>
</svg>
